Coordinates
version=1
nRows=10
nColumns=22
inDegrees=yes

Units are S.I. units (second, meters, Newtons, ...)
If the header above contains a line with 'inDegrees', this indicates whether rotational values are in degrees (yes) or radians (no).

endheader
time	pelvis_tilt	pelvis_list	pelvis_rotation	pelvis_tx	pelvis_ty	pelvis_tz	hip_flexion_r	hip_adduction_r	hip_rotation_r	knee_angle_r	ankle_angle_r	subtalar_angle_r	hip_flexion_l	hip_adduction_l	hip_rotation_l	knee_angle_l	ankle_angle_l	subtalar_angle_l	lumbar_extension	lumbar_bending	lumbar_rotation
      1.29000000	      0.10194315	     -3.15116938	     -5.37788327	     -1.13383264	      0.93374619	     -0.08805475	     -3.47429249	      1.96852873	      1.98012641	     -5.67470156	      6.04939868	      2.39681759	      0.12491113	     -6.33756645	    -12.92104280	    -14.43947632	     12.27867367	      3.69728730	     -2.97334185	     -1.15483733	     -0.83029139
      1.30000000	      0.03863230	     -3.19078914	     -5.36766388	     -1.13309212	      0.93354205	     -0.08885478	     -3.52421895	      1.94589807	      1.96418964	     -5.55553105	      6.09286150	      2.54771122	      0.28205821	     -6.36505152	    -12.93172287	    -14.72545157	     12.57991935	      3.71313037	     -2.92925655	     -1.06917176	     -0.82660770
      1.31000000	     -0.01893016	     -3.22572917	     -5.37460238	     -1.13227752	      0.93334428	     -0.08967352	     -3.57035424	      1.91350742	      1.95366234	     -5.46282783	      6.14961378	      2.73239408	      0.40025344	     -6.38205522	    -12.96765493	    -14.96625276	     12.86916014	      3.76281202	     -2.88162096	     -0.99141466	     -0.81457164
      1.32000000	     -0.06670503	     -3.25072350	     -5.39156353	     -1.13139325	      0.93315635	     -0.09054856	     -3.61578761	      1.86301317	      1.95315590	     -5.39741043	      6.22704227	      2.93867145	      0.47356474	     -6.37995782	    -13.03261566	    -15.15234730	     13.14146869	      3.84169525	     -2.83907919	     -0.92208324	     -0.79859673
      1.33000000	     -0.11302881	     -3.26295062	     -5.41781386	     -1.13043013	      0.93297003	     -0.09146999	     -3.65162409	      1.79276114	      1.96180730	     -5.35915156	      6.30197792	      3.20758704	      0.51495091	     -6.35863076	    -13.13149606	    -15.29241291	     13.38048345	      3.95792724	     -2.78925773	     -0.86701202	     -0.79668755
      1.34000000	     -0.12931737	     -3.26444993	     -5.44280623	     -1.12941075	      0.93281656	     -0.09245526	     -3.69925249	      1.70477030	      1.97007212	     -5.36467505	      6.42561083	      3.32360459	      0.49448178	     -6.31267721	    -13.21321310	    -15.38129139	     13.62117989	      4.01883149	     -2.77209493	     -0.82689246	     -0.79819333
      1.35000000	     -0.15548855	     -3.28292323	     -5.48263393	     -1.12831196	      0.93265202	     -0.09347343	     -3.70910550	      1.63132475	      1.98293058	     -5.43271988	      6.56457648	      3.61507481	      0.45214426	     -6.28425659	    -13.35477759	    -15.42678223	     13.81298125	      4.14196730	     -2.73534953	     -0.76406762	     -0.79220110
      1.36000000	     -0.16714410	     -3.26437714	     -5.49499517	     -1.12714533	      0.93249599	     -0.09460268	     -3.72457072	      1.51418319	      1.97837290	     -5.51926133	      6.69078654	      3.74076929	      0.39123459	     -6.20536009	    -13.45706459	    -15.45886870	     14.00987361	      4.20368453	     -2.70955606	     -0.74776137	     -0.82506314
      1.37000000	     -0.16866658	     -3.24858921	     -5.51521743	     -1.12593524	      0.93234295	     -0.09579441	     -3.69394542	      1.39562545	      1.97252074	     -5.72189324	      6.87972338	      3.92467968	      0.29710577	     -6.12185429	    -13.57483266	    -15.45550263	     14.16922596	      4.28421324	     -2.69458042	     -0.72614286	     -0.86860584
      1.38000000	     -0.16557982	     -3.21358720	     -5.52154632	     -1.12467278	      0.93218378	     -0.09708454	     -3.62636128	      1.25395713	      1.95851416	     -6.00705611	      7.08162765	      4.11936143	      0.19409404	     -6.00900176	    -13.66911977	    -15.43981226	     14.29539084	      4.37794995	     -2.68257461	     -0.72601227	     -0.93639790
